<?xml version="1.0"?>
<!-- Generated by SVGo -->
<svg width="2000" height="850"
     xmlns="http://www.w3.org/2000/svg"
     xmlns:xlink="http://www.w3.org/1999/xlink">
<g style="opacity:1.0;stroke-width:5">
<rect x="0" y="0" width="2000" height="850" rx="280" ry="280" style="stroke:black;fill:white" />
<path d="M1000,850 L900,850 A100,100 1 0,1 1100,850 z" style="stroke:red;fill:white" />
<circle cx="1000" cy="425" r="150" style="stroke:blue;fill:white" />
<line x1="1000" y1="0" x2="1000" y2="850" style="stroke:red;stroke-dasharray:5" />
<circle cx="1000" cy="425" r="10" style="stroke:blue;fill:blue" />
<circle cx="800" cy="205" r="10" style="stroke:red;fill:red" />
<circle cx="800" cy="645" r="10" style="stroke:red;fill:red" />
<circle cx="1200" cy="205" r="10" style="stroke:red;fill:red" />
<circle cx="1200" cy="645" r="10" style="stroke:red;fill:red" />
<g style="stroke:red">
<circle cx="310" cy="205" r="150" style="fill:white" />
<circle cx="310" cy="205" r="10" style="fill:red" />
<line x1="290" y1="195" x2="290" y2="165" />
<line x1="330" y1="195" x2="330" y2="165" />
<line x1="290" y1="215" x2="290" y2="245" />
<line x1="330" y1="215" x2="330" y2="245" />
<line x1="290" y1="195" x2="250" y2="195" />
<line x1="330" y1="195" x2="370" y2="195" />
<line x1="290" y1="215" x2="250" y2="215" />
<line x1="330" y1="215" x2="370" y2="215" />
<line x1="290" y1="355" x2="290" y2="375" />
<line x1="330" y1="355" x2="330" y2="375" />
<line x1="290" y1="55" x2="290" y2="35" />
<line x1="330" y1="55" x2="330" y2="35" />
</g>
<g style="stroke:red">
<circle cx="310" cy="645" r="150" style="fill:white" />
<circle cx="310" cy="645" r="10" style="fill:red" />
<line x1="290" y1="635" x2="290" y2="605" />
<line x1="330" y1="635" x2="330" y2="605" />
<line x1="290" y1="655" x2="290" y2="685" />
<line x1="330" y1="655" x2="330" y2="685" />
<line x1="290" y1="635" x2="250" y2="635" />
<line x1="330" y1="635" x2="370" y2="635" />
<line x1="290" y1="655" x2="250" y2="655" />
<line x1="330" y1="655" x2="370" y2="655" />
<line x1="290" y1="795" x2="290" y2="815" />
<line x1="330" y1="795" x2="330" y2="815" />
<line x1="290" y1="495" x2="290" y2="475" />
<line x1="330" y1="495" x2="330" y2="475" />
</g>
<g style="stroke:red">
<circle cx="1690" cy="205" r="150" style="fill:white" />
<circle cx="1690" cy="205" r="10" style="fill:red" />
<line x1="1670" y1="195" x2="1670" y2="165" />
<line x1="1710" y1="195" x2="1710" y2="165" />
<line x1="1670" y1="215" x2="1670" y2="245" />
<line x1="1710" y1="215" x2="1710" y2="245" />
<line x1="1670" y1="195" x2="1630" y2="195" />
<line x1="1710" y1="195" x2="1750" y2="195" />
<line x1="1670" y1="215" x2="1630" y2="215" />
<line x1="1710" y1="215" x2="1750" y2="215" />
<line x1="1670" y1="355" x2="1670" y2="375" />
<line x1="1710" y1="355" x2="1710" y2="375" />
<line x1="1670" y1="55" x2="1670" y2="35" />
<line x1="1710" y1="55" x2="1710" y2="35" />
</g>
<g style="stroke:red">
<circle cx="1690" cy="645" r="150" style="fill:white" />
<circle cx="1690" cy="645" r="10" style="fill:red" />
<line x1="1670" y1="635" x2="1670" y2="605" />
<line x1="1710" y1="635" x2="1710" y2="605" />
<line x1="1670" y1="655" x2="1670" y2="685" />
<line x1="1710" y1="655" x2="1710" y2="685" />
<line x1="1670" y1="635" x2="1630" y2="635" />
<line x1="1710" y1="635" x2="1750" y2="635" />
<line x1="1670" y1="655" x2="1630" y2="655" />
<line x1="1710" y1="655" x2="1750" y2="655" />
<line x1="1670" y1="795" x2="1670" y2="815" />
<line x1="1710" y1="795" x2="1710" y2="815" />
<line x1="1670" y1="495" x2="1670" y2="475" />
<line x1="1710" y1="495" x2="1710" y2="475" />
</g>
<line x1="110" y1="57" x2="110" y2="793" style="stroke:red" />
<line x1="1890" y1="57" x2="1890" y2="793" style="stroke:red" />
<path d="M110,425 L110,365 A60,60 1 0,1 110,485 z" style="stroke:red;fill:blue" />
<path d="M1890,425 L1890,485 A60,60 1 0,1 1890,365 z" style="stroke:red;fill:blue" />
<line x1="750" y1="0" x2="750" y2="850" style="stroke:blue" />
<line x1="1250" y1="0" x2="1250" y2="850" style="stroke:blue" />
</g>
</svg>
